<svg width="50" height="50" viewBox="0 0 50 50" fill="none" xmlns="http://www.w3.org/2000/svg">
<path d="M25 6.25C36.4583 6.25 45.8333 13.7083 45.8333 22.9167C45.8333 32.125 36.4583 39.5833 25 39.5833C22.4167 39.5833 19.9375 39.2083 17.6458 38.5417C11.5625 43.75 4.16666 43.75 4.16666 43.75C9.02082 38.8958 9.79166 35.625 9.89582 34.375C6.35416 31.3958 4.16666 27.3542 4.16666 22.9167C4.16666 13.7083 13.5417 6.25 25 6.25ZM35.4167 25V20.8333H31.25V25H35.4167ZM27.0833 25V20.8333H22.9167V25H27.0833ZM18.75 25V20.8333H14.5833V25H18.75Z" fill="#F8F8F8"/>
</svg>
