<svg width="24" height="24" viewBox="0 0 24 24" fill="none" xmlns="http://www.w3.org/2000/svg">
<path d="M12 0C12 0 4.5768 7.12 0.4284 10.976C0.296396 11.1038 0.190044 11.261 0.116242 11.4374C0.0424399 11.6138 0.00283634 11.8055 0 12C0 12.3536 0.126428 12.6928 0.351472 12.9428C0.576515 13.1929 0.88174 13.3333 1.2 13.3333H3.6V22.6667C3.6 23.0203 3.72643 23.3594 3.95147 23.6095C4.17652 23.8595 4.48174 24 4.8 24H8.4C8.71826 24 9.02348 23.8595 9.24853 23.6095C9.47357 23.3594 9.6 23.0203 9.6 22.6667V17.3333H14.4V22.6667C14.4 23.0203 14.5264 23.3594 14.7515 23.6095C14.9765 23.8595 15.2817 24 15.6 24H19.2C19.5183 24 19.8235 23.8595 20.0485 23.6095C20.2736 23.3594 20.4 23.0203 20.4 22.6667V13.3333H22.8C23.1183 13.3333 23.4235 13.1929 23.6485 12.9428C23.8736 12.6928 24 12.3536 24 12C23.9983 11.8018 23.9561 11.6065 23.8764 11.4291C23.7968 11.2517 23.6819 11.0968 23.5404 10.976C19.4208 7.12 12 0 12 0Z" fill="#F8F8F8"/>
</svg>
