<svg width="50" height="50" viewBox="0 0 50 50" fill="none" xmlns="http://www.w3.org/2000/svg">
<path d="M4.58334 19.5833C4.58334 22.2916 5 26.4583 8.75 30.2083C12.0833 33.5416 23.125 41.0416 23.5417 41.4582C23.9583 41.6666 24.375 41.8749 24.7917 41.8749C25.2083 41.8749 25.625 41.6666 26.0417 41.4582C26.4583 41.0416 37.5 33.7499 40.8333 30.2083C44.5833 26.4583 45 22.2916 45 19.5833C45 13.3333 40 8.33325 33.75 8.33325C30.4167 8.33325 27.0833 10.2083 25 13.1249C22.9167 10.2083 19.5833 8.33325 15.8333 8.33325C9.79167 8.33325 4.58334 13.3333 4.58334 19.5833Z" fill="#F8F8F8"/>
</svg>
