<svg width="20" height="20" viewBox="0 0 20 20" fill="none" xmlns="http://www.w3.org/2000/svg">
<path d="M15 8.33337H11.6667V5.00004C11.6667 4.55801 11.4911 4.13409 11.1785 3.82153C10.866 3.50897 10.442 3.33337 10 3.33337C9.55797 3.33337 9.13405 3.50897 8.82149 3.82153C8.50893 4.13409 8.33333 4.55801 8.33333 5.00004L8.3925 8.33337H5C4.55797 8.33337 4.13405 8.50897 3.82149 8.82153C3.50893 9.13409 3.33333 9.55801 3.33333 10C3.33333 10.4421 3.50893 10.866 3.82149 11.1786C4.13405 11.4911 4.55797 11.6667 5 11.6667L8.3925 11.6075L8.33333 15C8.33333 15.4421 8.50893 15.866 8.82149 16.1786C9.13405 16.4911 9.55797 16.6667 10 16.6667C10.442 16.6667 10.866 16.4911 11.1785 16.1786C11.4911 15.866 11.6667 15.4421 11.6667 15V11.6075L15 11.6667C15.442 11.6667 15.8659 11.4911 16.1785 11.1786C16.4911 10.866 16.6667 10.4421 16.6667 10C16.6667 9.55801 16.4911 9.13409 16.1785 8.82153C15.8659 8.50897 15.442 8.33337 15 8.33337Z" fill="#F8F8F8"/>
</svg>
