<svg width="24" height="24" viewBox="0 0 24 24" fill="none" xmlns="http://www.w3.org/2000/svg">
<g clip-path="url(#clip0_624_16)">
<path fill-rule="evenodd" clip-rule="evenodd" d="M19.3998 6.57143C19.3998 10.2007 16.148 13.1429 12.1366 13.1429C8.12529 13.1429 4.87346 10.2007 4.87346 6.57143C4.87346 2.94213 8.12529 0 12.1366 0C16.148 0 19.3998 2.94213 19.3998 6.57143ZM16.8735 6.57143C16.8735 8.93837 14.7527 10.8571 12.1366 10.8571C9.52054 10.8571 7.39977 8.93837 7.39977 6.57143C7.39977 4.20449 9.52054 2.28571 12.1366 2.28571C14.7527 2.28571 16.8735 4.20449 16.8735 6.57143Z" fill="#C5C5C5"/>
<path d="M0.657492 22.5404C0.562847 22.8209 0.735776 23.1143 1.04043 23.2147L2.21919 23.6029C2.57698 23.7206 2.96633 23.5264 3.07801 23.1972C4.26654 19.6916 7.87259 17.1429 12.1366 17.1429C16.4006 17.1429 20.0066 19.6916 21.1953 23.1972C21.3069 23.5264 21.6962 23.7206 22.0541 23.6029L23.2328 23.2147C23.5374 23.1143 23.7104 22.8209 23.6157 22.5404C22.1152 18.0926 17.5435 14.8572 12.1366 14.8572C6.72966 14.8572 2.15795 18.0926 0.657492 22.5404Z" fill="#C5C5C5"/>
</g>
<defs>
<clipPath id="clip0_624_16">
<rect width="24" height="24" fill="white"/>
</clipPath>
</defs>
</svg>
